<svg width="133" height="133" viewBox="0 0 133 133" xmlns="http://www.w3.org/2000/svg" fill="white">
    <g clip-path="url(#clip0_1_5)">
        <path d="M43.301 55.3L39.501 56.2V22H55.601V96H40.701L39.801 83.9L43.001 84.4C42.801 86.0667 42.151 87.6667 41.051 89.2C40.178 90.4056 39.1399 91.4825 37.967 92.399C37.5893 92.6974 37.2004 92.9813 36.801 93.25C35.5658 94.0749 34.2488 94.7703 32.871 95.325C32.208 95.5945 31.5341 95.8364 30.851 96.05C28.6177 96.75 26.2677 97.1 23.801 97.1C21.1658 97.1221 18.5467 96.6873 16.06 95.815C14.4707 95.2457 12.9566 94.4851 11.551 93.55C8.39357 91.4371 5.7802 88.6079 3.924 85.293C3.6343 84.787 3.35984 84.2724 3.101 83.75C1.65055 80.7873 0.704881 77.6032 0.302996 74.329C0.0983409 72.7275 -0.00253622 71.1145 0.000996042 69.5C-0.0141964 66.8255 0.274997 64.1581 0.862996 61.549C1.36033 59.3691 2.11146 57.255 3.101 55.25C4.3768 52.6274 6.08729 50.2397 8.16 48.188C9.21752 47.1534 10.3695 46.22 11.601 45.4C14.9027 43.2123 18.7439 41.9777 22.702 41.832C23.1347 41.8107 23.5678 41.8 24.001 41.8C26.401 41.8 28.701 42.1667 30.901 42.9C33.101 43.6333 35.101 44.6333 36.901 45.9C38.0239 46.6824 39.0571 47.5862 39.982 48.595C40.4574 49.1172 40.8981 49.67 41.301 50.25C42.4343 51.8833 43.101 53.5667 43.301 55.3ZM27.901 83.8C29.0311 83.8083 30.1573 83.6664 31.25 83.378C32.3351 83.0875 33.3657 82.6221 34.301 82C35.9216 80.9111 37.2358 79.4248 38.118 77.683C38.2352 77.4584 38.3462 77.2307 38.451 77C39.0123 75.7408 39.4063 74.4135 39.623 73.052C39.813 71.8776 39.906 70.6896 39.901 69.5C39.901 66.6827 39.455 64.2343 38.563 62.155C38.5265 62.0696 38.4892 61.9846 38.451 61.9C37.9065 60.673 37.1643 59.5436 36.254 58.557C35.6694 57.9308 35.014 57.3748 34.301 56.9C32.501 55.7 30.3677 55.1 27.901 55.1C26.8178 55.0922 25.738 55.223 24.688 55.489C23.569 55.7754 22.5077 56.2527 21.551 56.9C20.093 57.8988 18.8801 59.2147 18.003 60.749C17.7851 61.1234 17.5842 61.5075 17.401 61.9C16.4303 63.9707 15.9307 66.4183 15.902 69.243C15.9012 69.3287 15.9009 69.4143 15.901 69.5C15.901 72.3667 16.401 74.8667 17.401 77C17.9282 78.1461 18.6191 79.2095 19.452 80.157C20.0727 80.8558 20.7778 81.4749 21.551 82C22.8564 82.8763 24.3445 83.4434 25.902 83.658C26.5639 83.7545 27.2321 83.802 27.901 83.8ZM63.801 87.8L73.501 79.4C75.3541 81.2811 77.5708 82.7652 80.016 83.762C80.1768 83.8269 80.3385 83.8896 80.501 83.95C83.101 84.9167 85.5677 85.4 87.901 85.4C88.3303 85.4013 88.7594 85.378 89.186 85.33C89.5962 85.284 90.0024 85.2071 90.401 85.1C90.7271 85.0125 91.046 84.9002 91.355 84.764C91.6711 84.6251 91.9715 84.4528 92.251 84.25C92.751 83.8833 93.1343 83.45 93.401 82.95C93.5779 82.6131 93.6962 82.2486 93.751 81.872C93.7848 81.6496 93.8015 81.4249 93.801 81.2C93.8104 80.626 93.6789 80.0584 93.418 79.547C93.176 79.0843 92.8187 78.6793 92.346 78.332C92.2344 78.2498 92.1193 78.1724 92.001 78.1C91.401 77.7667 90.401 77.3667 89.001 76.9C87.601 76.4333 85.801 75.9 83.601 75.3C80.743 74.57 78.2317 73.7157 76.067 72.737C75.8606 72.6435 75.6553 72.5478 75.451 72.45C74.4262 71.9645 73.4371 71.4071 72.491 70.782C71.5245 70.1452 70.6235 69.4143 69.801 68.6C68.4677 67.2 67.4343 65.65 66.701 63.95C66.1964 62.7637 65.8657 61.5108 65.719 60.23C65.639 59.5563 65.5996 58.8784 65.601 58.2C65.5877 56.5595 65.8744 54.9304 66.447 53.393C66.6953 52.738 66.9977 52.1048 67.351 51.5C68.5036 49.5401 70.0306 47.8262 71.845 46.456C71.9133 46.4036 71.982 46.3516 72.051 46.3C73.6969 45.0824 75.5117 44.1115 77.438 43.418C77.9042 43.2478 78.3754 43.0917 78.851 42.95C81.4177 42.1833 84.0677 41.8 86.801 41.8C89.2856 41.7916 91.7639 42.0484 94.194 42.566C94.5309 42.6386 94.8666 42.7166 95.201 42.8C97.8677 43.4667 100.351 44.4 102.651 45.6C104.78 46.7004 106.761 48.067 108.546 49.667C108.631 49.7441 108.717 49.8218 108.801 49.9L100.401 59.3C99.2453 58.2141 97.9818 57.2491 96.63 56.42C96.5374 56.3627 96.4443 56.3061 96.351 56.25C94.851 55.35 93.301 54.6333 91.701 54.1C90.213 53.604 88.8407 53.3387 87.584 53.304C87.4897 53.3014 87.3953 53.3 87.301 53.3C86.8852 53.2992 86.4695 53.3152 86.055 53.348C85.629 53.3827 85.229 53.436 84.855 53.508C84.7868 53.5212 84.7188 53.5352 84.651 53.55C84.3094 53.6226 83.9743 53.7229 83.649 53.85C83.3152 53.9805 82.9972 54.1482 82.701 54.35C82.4324 54.5323 82.1863 54.7458 81.968 54.986C81.786 55.1876 81.6292 55.4106 81.501 55.65C81.3238 55.9869 81.2051 56.3514 81.15 56.728C81.1165 56.9504 81.1002 57.1751 81.101 57.4C81.1024 58.0613 81.2869 58.7092 81.634 59.272C81.6396 59.2814 81.6453 59.2907 81.651 59.3C81.9551 59.7925 82.355 60.2189 82.827 60.554C82.9481 60.6413 83.0729 60.7233 83.201 60.8C83.4145 60.9263 83.6338 61.0428 83.858 61.149C84.4987 61.457 85.3463 61.7907 86.401 62.15C87.8677 62.65 89.8677 63.2667 92.401 64C93.701 64.3573 94.9893 64.7559 96.264 65.195C97.8133 65.7317 99.2257 66.3 100.501 66.9C101.438 67.336 102.34 67.8411 103.202 68.411C104.25 69.1103 105.15 69.8733 105.901 70.7C106.968 71.8333 107.768 73.15 108.301 74.65C108.834 76.15 109.101 77.7667 109.101 79.5C109.101 82.9 108.151 85.9167 106.251 88.55C104.351 91.1833 101.734 93.25 98.401 94.75C96.1802 95.7349 93.829 96.3947 91.42 96.709C89.9553 96.9063 88.4789 97.0035 87.001 97C84.6877 97.0101 82.3776 96.8265 80.095 96.451C77.7461 96.0664 75.4496 95.4117 73.251 94.5C69.2843 92.8333 66.1343 90.6 63.801 87.8ZM124.301 97.1C121.568 97.1 119.451 96.3333 117.951 94.8C117.109 93.9241 116.495 92.8547 116.163 91.686C115.932 90.9173 115.787 90.0717 115.729 89.149C115.71 88.833 115.7 88.5165 115.701 88.2C115.692 87.2042 115.82 86.2119 116.082 85.251C116.448 83.9173 117.142 82.6965 118.101 81.7C119.701 80.0333 121.768 79.2 124.301 79.2C126.838 79.2 128.858 79.875 130.361 81.225C130.478 81.3296 130.591 81.438 130.701 81.55C131.608 82.4931 132.259 83.653 132.591 84.919C132.864 85.897 133.001 86.9907 133.001 88.2C133.01 89.2282 132.866 90.2521 132.574 91.238C132.193 92.4996 131.517 93.6522 130.601 94.6C129.276 95.9802 127.501 96.8408 125.597 97.026C125.167 97.076 124.734 97.1007 124.301 97.1Z" >
        </path>
    </g>
    <defs>
        <clipPath id="clip0_1_5">
            <rect width="133" height="133"/>
        </clipPath>
    </defs>
</svg>